Simulation
nRows=27
nColumns=15
endheader
time  TH_x TH_y TH_z SC_y  SC_z  SC_x  AC_y  AC_z  AC_x  GH_y  GH_z  GH_yy  EL_x  PS_y
2.8725  0.000000  0.000000  0.000000  -33.159464969077966  -6.375355272487581  15.773799325927815  48.215879458921  -25.244761404297048  -6.331843975644648  -17.843864508806558  31.83969471473421  15.276100866872225  14.145379755157936  120.000000
2.92995  0.000000  0.000000  0.000000  -33.255391289779446  -6.103002013050968  17.376262144755525  47.689441362324025  -25.807083805601447  -7.75165737342985  -16.699293553972723  29.46686990076783  17.340410356222918  14.502812368006085  120.000000
2.9874  0.000000  0.000000  0.000000  -33.35401347968436  -5.876513299634105  18.50767796723467  47.40421169778971  -26.16905729227803  -8.657590898134663  -15.613257102778006  27.571875730411655  18.90087907732905  14.942390436535609  120.000000
3.0448500000000003  0.000000  0.000000  0.000000  -33.449639481280684  -5.679806805579769  19.243097129940615  47.31005697073216  -26.369732848090408  -9.13765110641448  -14.606130611291174  26.100943280275676  19.942944785505976  15.423099519967074  120.000000
3.1023  0.000000  0.000000  0.000000  -33.543330256390504  -5.497761246866421  19.683858434028277  47.34026839318723  -26.45562374839121  -9.314974913496123  -13.709901228960684  25.001646363615638  20.535831386905944  15.903903421773956  120.000000
3.15975  0.000000  0.000000  0.000000  -33.629576837029745  -5.3279931217521375  19.945513483819397  47.41861621898331  -26.479420197687773  -9.335769496201237  -12.948789220864573  24.224765778661286  20.79027654849156  16.354709615842534  120.000000
3.2172  0.000000  0.000000  0.000000  -33.700183492230146  -5.1757272921930735  20.1250687562341  47.487105354016215  -26.484700098101836  -9.31975510425512  -12.335012236937017  23.71842793140016  20.832623444480475  16.763988058897706  120.000000
3.2746500000000003  0.000000  0.000000  0.000000  -33.75710519414654  -5.040768504398472  20.267729949189537  47.53305474554501  -26.487873444177687  -9.308210538100322  -11.878020678611978  23.423331230810287  20.79257392190526  17.13582952250221  120.000000
3.3321  0.000000  0.000000  0.000000  -33.804850237530125  -4.923126921981589  20.385984570453566  47.56748340835802  -26.490206910756896  -9.299469973912311  -11.561800913394627  23.277089539444948  20.76607751176337  17.485061506036107  120.000000
3.38955  0.000000  0.000000  0.000000  -33.84418557210557  -4.830107542497317  20.487446947620594  47.598420949526606  -26.49326194012295  -9.293719095510447  -11.327634445438884  23.22126940297784  20.785327134862673  17.82960623965397  120.000000
3.447  0.000000  0.000000  0.000000  -33.875344449470795  -4.765453060320493  20.57259051217838  47.63443073914801  -26.496026217615043  -9.285294596815977  -11.111461094704495  23.205446807585773  20.843899156418622  18.182099112618904  120.000000
3.5044500000000003  0.000000  0.000000  0.000000  -33.90382686019342  -4.71994663764475  20.62907826078544  47.690706569476355  -26.48919197274299  -9.24774065226406  -10.884497405411253  23.190986483199808  20.934683055959656  18.545520669721046  120.000000
3.5619  0.000000  0.000000  0.000000  -33.9383182849604  -4.673661050127022  20.639844613284637  47.78410507425074  -26.459598427327556  -9.145715806871484  -10.653394605203495  23.153079661803144  21.059346107042376  18.916653447617215  120.000000
3.61935  0.000000  0.000000  0.000000  -33.98662992766606  -4.605215238062565  20.591631712054276  47.92534346593702  -26.39604401603507  -8.951099674320247  -10.443694514076347  23.080455147720965  21.225508494066144  19.29085658246948  120.000000
3.6768  0.000000  0.000000  0.000000  -34.05299666411572  -4.498759160571213  20.47393902191164  48.12048820922377  -26.290112906035464  -8.644422048241038  -10.285908687078525  22.97262155747813  21.443078497239373  19.664574633284776  120.000000
3.7342500000000003  0.000000  0.000000  0.000000  -34.13753128176009  -4.350557906682009  20.274690704450073  48.373193876045974  -26.129572714446024  -8.216186773536691  -10.202761192657896  22.835327749977925  21.719138737304878  20.037472472730286  120.000000
3.7917  0.000000  0.000000  0.000000  -34.236293773160874  -4.170385697211757  19.978531715332007  48.68551852155226  -25.89856812943688  -7.6653842936533305  -10.207539137935754  22.681680034524177  22.058722343152635  20.411762169008167  120.000000
3.84915  0.000000  0.000000  0.000000  -34.341357977165565  -3.975963347193943  19.56971211969727  49.05744542912741  -25.589765379115892  -6.992523632609519  -10.315566707945553  22.54003694893363  22.476454406796616  20.789506590770547  120.000000
3.9066  0.000000  0.000000  0.000000  -34.44203362939844  -3.7893156131789545  19.033173097186253  49.48675722522487  -25.20852446355945  -6.1960990736229755  -10.55275510512257  22.458024876138264  23.004593103671205  21.17042331284269  120.000000
3.9640500000000003  0.000000  0.000000  0.000000  -34.52967274386387  -3.634404467056606  18.35123787375821  49.96977803325107  -24.76746898698869  -5.272775331744967  -10.951605521441621  22.50194989598578  23.688299365491655  21.551631694845405  120.000000
4.0215  0.000000  0.000000  0.000000  -34.60366992281786  -3.5327574599977347  17.500316876427956  50.500868954224025  -24.279818898191255  -4.216459062899107  -11.534617967254349  22.750971554764075  24.56375773463813  21.927665903029084  120.000000
4.07895  0.000000  0.000000  0.000000  -34.664882290335335  -3.504144354892688  16.445299119065957  51.07861526134279  -23.748421357568112  -3.011596228013034  -12.288700720072367  23.28015135955478  25.625057164760893  22.29082467202369  120.000000
4.1364  0.000000  0.000000  0.000000  -34.71013993581071  -3.569753940261904  15.151908528551175  51.71098152163057  -23.167005518020392  -1.6379530013654742  -13.141927184730157  24.14076240466344  26.79082529572058  22.62937315615151  120.000000
4.19385  0.000000  0.000000  0.000000  -34.73724903827956  -3.744177433631958  13.605864007816702  52.40883663356042  -22.52661352034287  -0.08282399790208445  -13.974609567156918  25.350738374468026  27.909989663047437  22.92681373027436  120.000000
4.2513000000000005  0.000000  0.000000  0.000000  -34.74998053572588  -4.024925284171436  11.81815381921556  53.18586790980077  -21.81211934958148  1.6579860572805407  -14.6584025324474  26.89521706740517  28.802169488956796  23.16288612917072  120.000000
4.30875  0.000000  0.000000  0.000000  -34.762848442112514  -4.38466833693999  9.831275232939367  54.06106798154307  -21.000882257327707  3.5805175847866444  -15.094397189703407  28.730369693437513  29.305071057278518  23.321175380245197  120.000000
4.3662  0.000000  0.000000  0.000000  -34.7952527535435  -4.764620165869646  7.725764767435038  55.058145259914895  -20.063662506511683  5.669112275864884  -15.244724619963355  30.78998668652735  29.319793679220606  23.3983287192037  120.000000
